<svg width="272" height="27" viewBox="0 0 272 27" fill="none" xmlns="http://www.w3.org/2000/svg">
<path d="M8.316 26V4.508H0.972V0.799998H20.304V4.508H12.924V26H8.316ZM23.6095 26V0.079999H28.2175V10.88C28.8175 9.896 29.6215 9.128 30.6295 8.576C31.6615 8 32.8375 7.712 34.1575 7.712C36.3655 7.712 38.0695 8.408 39.2695 9.8C40.4935 11.192 41.1055 13.232 41.1055 15.92V26H36.5335V16.352C36.5335 14.816 36.2215 13.64 35.5975 12.824C34.9975 12.008 34.0375 11.6 32.7175 11.6C31.4215 11.6 30.3415 12.056 29.4775 12.968C28.6375 13.88 28.2175 15.152 28.2175 16.784V26H23.6095ZM54.1879 26.432C52.3879 26.432 50.7919 26.048 49.3999 25.28C48.0079 24.512 46.9159 23.432 46.1239 22.04C45.3319 20.648 44.9359 19.04 44.9359 17.216C44.9359 15.368 45.3199 13.724 46.0879 12.284C46.8799 10.844 47.9599 9.728 49.3279 8.936C50.7199 8.12 52.3519 7.712 54.2239 7.712C55.9759 7.712 57.5239 8.096 58.8679 8.864C60.2119 9.632 61.2559 10.688 61.9999 12.032C62.7679 13.352 63.1519 14.828 63.1519 16.46C63.1519 16.724 63.1399 17 63.1159 17.288C63.1159 17.576 63.1039 17.876 63.0799 18.188H49.5079C49.6039 19.58 50.0839 20.672 50.9479 21.464C51.8359 22.256 52.9039 22.652 54.1519 22.652C55.0879 22.652 55.8679 22.448 56.4919 22.04C57.1399 21.608 57.6199 21.056 57.9319 20.384H62.6119C62.2759 21.512 61.7119 22.544 60.9199 23.48C60.1519 24.392 59.1919 25.112 58.0399 25.64C56.9119 26.168 55.6279 26.432 54.1879 26.432ZM54.2239 11.456C53.0959 11.456 52.0999 11.78 51.2359 12.428C50.3719 13.052 49.8199 14.012 49.5799 15.308H58.4719C58.3999 14.132 57.9679 13.196 57.1759 12.5C56.3839 11.804 55.3999 11.456 54.2239 11.456ZM67.1355 26V0.799998H72.6075L80.6355 16.784L88.5555 0.799998H94.0275V26H89.4195V8.612L82.3995 22.4H78.7635L71.7435 8.612V26H67.1355ZM107.377 26.432C105.649 26.432 104.089 26.036 102.697 25.244C101.329 24.452 100.237 23.36 99.4208 21.968C98.6288 20.552 98.2328 18.92 98.2328 17.072C98.2328 15.224 98.6408 13.604 99.4568 12.212C100.273 10.796 101.365 9.692 102.733 8.9C104.125 8.108 105.685 7.712 107.413 7.712C109.117 7.712 110.653 8.108 112.021 8.9C113.413 9.692 114.505 10.796 115.297 12.212C116.113 13.604 116.521 15.224 116.521 17.072C116.521 18.92 116.113 20.552 115.297 21.968C114.505 23.36 113.413 24.452 112.021 25.244C110.629 26.036 109.081 26.432 107.377 26.432ZM107.377 22.436C108.577 22.436 109.621 21.992 110.509 21.104C111.397 20.192 111.841 18.848 111.841 17.072C111.841 15.296 111.397 13.964 110.509 13.076C109.621 12.164 108.589 11.708 107.413 11.708C106.189 11.708 105.133 12.164 104.245 13.076C103.381 13.964 102.949 15.296 102.949 17.072C102.949 18.848 103.381 20.192 104.245 21.104C105.133 21.992 106.177 22.436 107.377 22.436ZM124.586 26L118.034 8.144H122.858L127.394 21.644L131.93 8.144H136.754L130.166 26H124.586ZM142.144 5.372C141.304 5.372 140.608 5.12 140.056 4.616C139.528 4.112 139.264 3.476 139.264 2.708C139.264 1.94 139.528 1.316 140.056 0.835998C140.608 0.331999 141.304 0.079999 142.144 0.079999C142.984 0.079999 143.668 0.331999 144.196 0.835998C144.748 1.316 145.024 1.94 145.024 2.708C145.024 3.476 144.748 4.112 144.196 4.616C143.668 5.12 142.984 5.372 142.144 5.372ZM139.84 26V8.144H144.448V26H139.84ZM157.934 26.432C156.134 26.432 154.538 26.048 153.146 25.28C151.754 24.512 150.662 23.432 149.87 22.04C149.078 20.648 148.682 19.04 148.682 17.216C148.682 15.368 149.066 13.724 149.834 12.284C150.626 10.844 151.706 9.728 153.074 8.936C154.466 8.12 156.098 7.712 157.97 7.712C159.722 7.712 161.27 8.096 162.614 8.864C163.958 9.632 165.002 10.688 165.746 12.032C166.514 13.352 166.898 14.828 166.898 16.46C166.898 16.724 166.886 17 166.862 17.288C166.862 17.576 166.85 17.876 166.826 18.188H153.254C153.35 19.58 153.83 20.672 154.694 21.464C155.582 22.256 156.65 22.652 157.898 22.652C158.834 22.652 159.614 22.448 160.238 22.04C160.886 21.608 161.366 21.056 161.678 20.384H166.358C166.022 21.512 165.458 22.544 164.666 23.48C163.898 24.392 162.938 25.112 161.786 25.64C160.658 26.168 159.374 26.432 157.934 26.432ZM157.97 11.456C156.842 11.456 155.846 11.78 154.982 12.428C154.118 13.052 153.566 14.012 153.326 15.308H162.218C162.146 14.132 161.714 13.196 160.922 12.5C160.13 11.804 159.146 11.456 157.97 11.456ZM181.898 26.432C179.522 26.432 177.446 25.892 175.67 24.812C173.894 23.732 172.514 22.232 171.53 20.312C170.546 18.368 170.054 16.112 170.054 13.544C170.054 10.952 170.558 8.672 171.566 6.704C172.598 4.712 174.05 3.164 175.922 2.06C177.818 0.931999 180.062 0.368 182.654 0.368C185.606 0.368 188.054 1.076 189.998 2.492C191.942 3.908 193.202 5.864 193.778 8.36H188.63C188.246 7.184 187.55 6.272 186.542 5.624C185.534 4.952 184.238 4.616 182.654 4.616C180.134 4.616 178.19 5.42 176.822 7.028C175.454 8.612 174.77 10.796 174.77 13.58C174.77 16.364 175.442 18.524 176.786 20.06C178.154 21.572 180.002 22.328 182.33 22.328C184.61 22.328 186.326 21.716 187.478 20.492C188.654 19.244 189.362 17.612 189.602 15.596H183.23V12.14H194.246V26H189.998L189.638 22.688C188.822 23.888 187.802 24.812 186.578 25.46C185.354 26.108 183.794 26.432 181.898 26.432ZM205.313 26.432C203.081 26.432 201.353 25.736 200.129 24.344C198.929 22.952 198.329 20.912 198.329 18.224V8.144H202.901V17.792C202.901 19.328 203.213 20.504 203.837 21.32C204.461 22.136 205.445 22.544 206.789 22.544C208.061 22.544 209.105 22.088 209.921 21.176C210.761 20.264 211.181 18.992 211.181 17.36V8.144H215.789V26H211.721L211.361 22.976C210.809 24.032 210.005 24.872 208.949 25.496C207.917 26.12 206.705 26.432 205.313 26.432ZM223.004 5.372C222.164 5.372 221.468 5.12 220.916 4.616C220.388 4.112 220.124 3.476 220.124 2.708C220.124 1.94 220.388 1.316 220.916 0.835998C221.468 0.331999 222.164 0.079999 223.004 0.079999C223.844 0.079999 224.528 0.331999 225.056 0.835998C225.608 1.316 225.884 1.94 225.884 2.708C225.884 3.476 225.608 4.112 225.056 4.616C224.528 5.12 223.844 5.372 223.004 5.372ZM220.7 26V8.144H225.308V26H220.7ZM238.325 26.432C236.645 26.432 235.145 26.024 233.825 25.208C232.505 24.392 231.461 23.276 230.693 21.86C229.925 20.444 229.541 18.836 229.541 17.036C229.541 15.236 229.925 13.64 230.693 12.248C231.461 10.832 232.505 9.728 233.825 8.936C235.145 8.12 236.645 7.712 238.325 7.712C239.669 7.712 240.845 7.964 241.853 8.468C242.861 8.972 243.677 9.68 244.301 10.592V0.079999H248.909V26H244.805L244.301 23.444C243.725 24.236 242.957 24.932 241.997 25.532C241.061 26.132 239.837 26.432 238.325 26.432ZM239.297 22.4C240.785 22.4 241.997 21.908 242.933 20.924C243.893 19.916 244.373 18.632 244.373 17.072C244.373 15.512 243.893 14.24 242.933 13.256C241.997 12.248 240.785 11.744 239.297 11.744C237.833 11.744 236.621 12.236 235.661 13.22C234.701 14.204 234.221 15.476 234.221 17.036C234.221 18.596 234.701 19.88 235.661 20.888C236.621 21.896 237.833 22.4 239.297 22.4ZM262.278 26.432C260.478 26.432 258.882 26.048 257.49 25.28C256.098 24.512 255.006 23.432 254.214 22.04C253.422 20.648 253.026 19.04 253.026 17.216C253.026 15.368 253.41 13.724 254.178 12.284C254.97 10.844 256.05 9.728 257.418 8.936C258.81 8.12 260.442 7.712 262.314 7.712C264.066 7.712 265.614 8.096 266.958 8.864C268.302 9.632 269.346 10.688 270.09 12.032C270.858 13.352 271.242 14.828 271.242 16.46C271.242 16.724 271.23 17 271.206 17.288C271.206 17.576 271.194 17.876 271.17 18.188H257.598C257.694 19.58 258.174 20.672 259.038 21.464C259.926 22.256 260.994 22.652 262.242 22.652C263.178 22.652 263.958 22.448 264.582 22.04C265.23 21.608 265.71 21.056 266.022 20.384H270.702C270.366 21.512 269.802 22.544 269.01 23.48C268.242 24.392 267.282 25.112 266.13 25.64C265.002 26.168 263.718 26.432 262.278 26.432ZM262.314 11.456C261.186 11.456 260.19 11.78 259.326 12.428C258.462 13.052 257.91 14.012 257.67 15.308H266.562C266.49 14.132 266.058 13.196 265.266 12.5C264.474 11.804 263.49 11.456 262.314 11.456Z" fill="#F9F9F9"/>
</svg>
